# xmcd
#
# Track frame offsets: 
#        182
#        11862
#        24877
#        40470
#        52095
#        64687
#        77075
#        90100
#        103070
#        116255
#        132287
#        146852
#        162322
#        176595
#        190985
#        204577
#        218070
#        232577
#        245790
#        259417
#        271875
#        284362
#        297780
#
# Disc length: 4176 seconds
#
# Revision: 1
# Processed by: cddbd v1.5.2PL0 Copyright (c) Steve Scherf et al.
# Submitted via: ExactAudioCopy v0.99pb5
#
DISCID=4f104e17
DTITLE=McKinney's Cotton Pickers - Great Alternatives 1928-1931
DYEAR=1993
DGENRE=Jazz
TTITLE0=Put It There
TTITLE1=Milenberg Joys
TTITLE2=Cherry
TTITLE3=Stop Kidding
TTITLE4=My Blackbirds Are Bluebirds Now - Take 2
TTITLE5=My Blackbirds Are Bluebirds Now - Take 3
TTITLE6=Don't Be Like That - Take 2
TTITLE7=Don't Be Like That - Take 3
TTITLE8=Wherever There's A Will There's A Way
TTITLE9=If I Could Be With You
TTITLE10=Honeysuckle Rose
TTITLE11=I Want A Little Girl - Take 2
TTITLE12=I Want A Little Girl - Take 3
TTITLE13=Talk To Me
TTITLE14=Laughing At Life
TTITLE15=Never Swat A Fly
TTITLE16=I Want Your Love
TTITLE17=It's A Lonesome Old Town
TTITLE18=She's My Secret Passion
TTITLE19=Come Easy, Go Easy Love - Take 3
TTITLE20=Come Easy, Go Easy Love - Take 4
TTITLE21=Do You Believe In Love At Sight
TTITLE22=Wrap Your Troubles In Your Dreams
EXTD=YEAR: 1993
EXTT0=
EXTT1=
EXTT2=
EXTT3=
EXTT4=
EXTT5=
EXTT6=
EXTT7=
EXTT8=
EXTT9=
EXTT10=
EXTT11=
EXTT12=
EXTT13=
EXTT14=
EXTT15=
EXTT16=
EXTT17=
EXTT18=
EXTT19=
EXTT20=
EXTT21=
EXTT22=
PLAYORDER=
